<svg width="163" height="50" viewBox="0 0 163 50" fill="none" xmlns="http://www.w3.org/2000/svg">
<rect width="162.653" height="50" rx="10" fill="white"/>
<path d="M123.709 36.968H125.734V23.396H123.709V36.968ZM141.954 28.2853L139.632 34.169H139.563L137.153 28.2853H134.971L138.586 36.5087L136.524 41.0834H138.637L144.207 28.2857L141.954 28.2853ZM130.466 35.4263C129.804 35.4263 128.878 35.0943 128.878 34.2738C128.878 33.2263 130.031 32.8247 131.025 32.8247C131.915 32.8247 132.335 33.0164 132.876 33.2785C132.718 34.5358 131.636 35.4263 130.466 35.4263L130.466 35.4263ZM130.711 27.9884C129.245 27.9884 127.726 28.6347 127.097 30.0663L128.895 30.8169C129.279 30.0663 129.995 29.8221 130.746 29.8221C131.793 29.8221 132.858 30.4501 132.876 31.5679V31.7074C132.509 31.4979 131.723 31.1838 130.763 31.1838C128.824 31.1838 126.852 32.2485 126.852 34.239C126.852 36.0548 128.441 37.2248 130.222 37.2248C131.583 37.2248 132.335 36.6137 132.805 35.8975H132.876V36.9457H134.832V31.7421C134.832 29.3327 133.032 27.9884 130.711 27.9884V27.9884ZM118.192 29.9374H115.311V25.2856H118.192C119.706 25.2856 120.566 26.5391 120.566 27.6114C120.566 28.6631 119.706 29.9374 118.192 29.9374ZM118.14 23.3963H113.286V36.9683H115.311V31.8267H118.14C120.385 31.8267 122.592 30.2017 122.592 27.6119C122.592 25.0227 120.385 23.3969 118.14 23.3969L118.14 23.3963ZM91.6725 35.4286C90.273 35.4286 89.1018 34.2565 89.1018 32.6481C89.1018 31.021 90.273 29.8323 91.6725 29.8323C93.0541 29.8323 94.1384 31.0211 94.1384 32.6481C94.1384 34.2565 93.0541 35.4286 91.6725 35.4286ZM93.9984 29.045H93.9284C93.4739 28.503 92.599 28.0132 91.4978 28.0132C89.1887 28.0132 87.0727 30.0423 87.0727 32.6481C87.0727 35.2361 89.1887 37.2474 91.4978 37.2474C92.599 37.2474 93.4738 36.7576 93.9284 36.1983H93.9984V36.8623C93.9984 38.6294 93.0541 39.5733 91.5325 39.5733C90.2913 39.5733 89.5217 38.6815 89.2066 37.9296L87.4405 38.6641C87.9472 39.8878 89.2935 41.3925 91.5326 41.3925C93.9115 41.3925 95.9228 39.993 95.9228 36.5824V28.293H93.9985L93.9984 29.045ZM97.3222 36.9676H99.35V23.3956H97.3222V36.9676ZM102.341 32.4904C102.289 30.7064 103.723 29.7972 104.755 29.7972C105.559 29.7972 106.241 30.1996 106.469 30.7763L102.341 32.4904ZM108.637 30.9511C108.252 29.9198 107.081 28.0132 104.685 28.0132C102.306 28.0132 100.33 29.8845 100.33 32.6304C100.33 35.2188 102.289 37.2475 104.912 37.2475C107.028 37.2475 108.252 35.9537 108.76 35.2014L107.186 34.1519C106.661 34.9215 105.944 35.4287 104.912 35.4287C103.88 35.4287 103.145 34.9564 102.674 34.0294L108.847 31.4761L108.637 30.9511ZM59.4515 29.43V31.3887H64.1385C63.9986 32.4905 63.6313 33.2948 63.0716 33.8546C62.3893 34.5365 61.3224 35.2887 59.4515 35.2887C56.5657 35.2887 54.3098 32.9628 54.3098 30.0771C54.3098 27.1914 56.5657 24.8651 59.4515 24.8651C61.0081 24.8651 62.1446 25.4774 62.9841 26.2644L64.3662 24.8825C63.194 23.7633 61.6378 22.9064 59.4515 22.9064C55.4983 22.9064 52.1755 26.1245 52.1755 30.0771C52.1755 34.0293 55.4983 37.2475 59.4515 37.2475C61.5848 37.2475 63.1941 36.5478 64.4531 35.2362C65.7474 33.942 66.1498 32.1232 66.1498 30.6539C66.1498 30.1997 66.1145 29.7799 66.0446 29.43H59.4515ZM71.479 35.4286C70.0795 35.4286 68.8727 34.2743 68.8727 32.6304C68.8727 30.9689 70.0795 29.8324 71.479 29.8324C72.8779 29.8324 74.0847 30.9689 74.0847 32.6304C74.0847 34.2743 72.8779 35.4286 71.479 35.4286ZM71.479 28.0132C68.9248 28.0132 66.8439 29.9545 66.8439 32.6304C66.8439 35.2887 68.9248 37.2475 71.479 37.2475C74.0322 37.2475 76.1134 35.2887 76.1134 32.6304C76.1134 29.9545 74.0322 28.0132 71.479 28.0132V28.0132ZM81.589 35.4286C80.1905 35.4286 78.9833 34.2743 78.9833 32.6304C78.9833 30.9689 80.1906 29.8324 81.589 29.8324C82.9884 29.8324 84.1948 30.9689 84.1948 32.6304C84.1948 34.2743 82.9884 35.4286 81.589 35.4286ZM81.589 28.0132C79.0358 28.0132 76.9549 29.9545 76.9549 32.6304C76.9549 35.2887 79.0358 37.2475 81.589 37.2475C84.1431 37.2475 86.224 35.2887 86.224 32.6304C86.224 29.9545 84.1431 28.0132 81.589 28.0132" fill="black"/>
<path d="M30.1099 25.4868L18.5531 37.7536C18.5535 37.7561 18.5544 37.7582 18.5548 37.7608C18.9093 39.0929 20.1259 40.0737 21.5698 40.0737C22.147 40.0737 22.6889 39.9176 23.1537 39.6437L23.1906 39.622L36.2 32.1151L30.1105 25.4866" fill="#FA3646"/>
<path d="M41.8022 23.3981L41.7912 23.3905L36.1746 20.1345L29.8469 25.7652L36.1966 32.1142L41.7835 28.8906C42.763 28.3618 43.428 27.3292 43.428 26.1384C43.428 24.9562 42.772 23.9287 41.8022 23.3982" fill="#FFCF00"/>
<path d="M18.5511 14.4714C18.4816 14.7275 18.4451 14.9959 18.4451 15.2746V36.9512C18.4451 37.2293 18.4812 37.4986 18.5516 37.7539L30.5074 25.8005L18.5516 14.4717" fill="#00D6FF"/>
<path d="M30.1947 26.1128L36.1769 20.1324L23.1822 12.5982C22.7098 12.3153 22.1586 12.152 21.5687 12.152C20.1247 12.152 18.9065 13.1346 18.5519 14.4682C18.5515 14.4695 18.5515 14.4704 18.5515 14.4715L30.1946 26.113" fill="#00F076"/>
<path d="M59.0718 15.0186H55.9049V15.8023H58.278C58.2135 16.4418 57.9591 16.9439 57.5299 17.3086C57.1008 17.6734 56.5529 17.8565 55.9049 17.8565C55.1942 17.8565 54.592 17.6089 54.0985 17.117C53.615 16.6149 53.3691 15.994 53.3691 15.246C53.3691 14.4981 53.615 13.8772 54.0985 13.3752C54.592 12.8833 55.1942 12.6373 55.9049 12.6373C56.2697 12.6373 56.6174 12.7 56.9362 12.8375C57.2551 12.9748 57.5112 13.1665 57.7114 13.4125L58.3136 12.8103C58.0404 12.4999 57.6945 12.2624 57.2652 12.0894C56.8361 11.9164 56.3883 11.8333 55.9048 11.8333C54.9567 11.8333 54.1527 12.1623 53.4963 12.8188C52.8398 13.4769 52.5107 14.2877 52.5107 15.2461C52.5107 16.2044 52.8398 17.017 53.4963 17.6734C54.1527 18.3298 54.9567 18.659 55.9048 18.659C56.9005 18.659 57.6944 18.34 58.305 17.692C58.8427 17.1527 59.1175 16.4233 59.1175 15.5108C59.1175 15.3564 59.0988 15.1918 59.0717 15.0188L59.0718 15.0186ZM60.2986 11.979V18.513H64.1133V17.7106H61.1382V15.6379H63.8217V14.8542H61.1382V12.7831H64.1133V11.979L60.2986 11.979ZM69.4625 12.7831V11.979H64.9726V12.7831H66.7978V18.5129H67.6374V12.7831H69.4625ZM73.5274 11.979H72.6878V18.513H73.5274V11.979ZM79.0694 12.7831V11.979H74.5795V12.7831H76.4046V18.5129H77.2442V12.7831H79.0694ZM87.542 12.8289C86.894 12.1623 86.1002 11.8333 85.152 11.8333C84.2021 11.8333 83.4084 12.1623 82.7603 12.8188C82.1123 13.4668 81.7935 14.2792 81.7935 15.246C81.7935 16.2128 82.1124 17.0254 82.7603 17.6734C83.4083 18.3297 84.2021 18.6589 85.152 18.6589C86.0917 18.6589 86.894 18.3298 87.542 17.6734C88.19 17.0254 88.5088 16.2129 88.5088 15.246C88.5088 14.2877 88.1899 13.4768 87.542 12.8289V12.8289ZM83.3625 13.3751C83.8459 12.8832 84.4396 12.6372 85.152 12.6372C85.8627 12.6372 86.4564 12.8832 86.9313 13.3751C87.4147 13.8585 87.6522 14.4894 87.6522 15.246C87.6522 16.0043 87.4147 16.6335 86.9313 17.1169C86.4564 17.6088 85.8627 17.8564 85.152 17.8564C84.4396 17.8564 83.8459 17.6088 83.3625 17.1169C82.8892 16.6233 82.6518 16.0043 82.6518 15.246C82.6518 14.4894 82.8892 13.8687 83.3625 13.3751V13.3751ZM90.5036 14.4437L90.468 13.1834H90.5036L93.8248 18.5129H94.7017V11.979H93.8621V15.8022L93.8977 17.0626H93.8621L90.6868 11.979H89.664V18.5129H90.5036V14.4437Z" fill="black" stroke="black" stroke-width="0.26666" stroke-miterlimit="10"/>
</svg>
