<svg width="163" height="50" viewBox="0 0 163 50" fill="none" xmlns="http://www.w3.org/2000/svg">
<path d="M0 10C0 4.47715 4.47715 0 10 0H152.653C158.176 0 162.653 4.47715 162.653 10V40C162.653 45.5228 158.176 50 152.653 50H10C4.47715 50 0 45.5228 0 40V10Z" fill="white"/>
<path d="M41.9911 23.9246C41.9606 20.5309 44.7706 18.8798 44.8991 18.803C43.3077 16.4833 40.841 16.1663 39.9742 16.1411C37.9024 15.9231 35.8929 17.3804 34.8375 17.3804C33.7611 17.3804 32.136 16.1621 30.3844 16.1979C28.1305 16.2327 26.0219 17.5373 24.8654 19.5632C22.4788 23.694 24.2588 29.7643 26.5454 33.1032C27.6892 34.7395 29.0257 36.5643 30.7752 36.5001C32.4867 36.4306 33.126 35.4103 35.1914 35.4103C37.2379 35.4103 37.8382 36.5001 39.6224 36.459C41.4592 36.4306 42.6157 34.8164 43.7195 33.1664C45.0413 31.2932 45.5721 29.4463 45.5932 29.3515C45.5511 29.3368 42.0269 27.9911 41.9911 23.9246V23.9246ZM38.6208 13.9446C39.5413 12.7937 40.1711 11.2279 39.9963 9.63903C38.6639 9.698 36.9977 10.5604 36.0382 11.686C35.1893 12.6779 34.431 14.3036 34.6269 15.8325C36.1235 15.9442 37.6602 15.0776 38.6208 13.9446V13.9446Z" fill="black"/>
<path d="M66.7813 36.2642H64.3894L63.0792 32.1482H58.525L57.2769 36.2642H54.9482L59.4613 22.2514H62.2482L66.7813 36.2642V36.2642ZM62.6842 30.4213L61.4993 26.7623C61.374 26.3885 61.138 25.5082 60.7926 24.1225H60.7504C60.6114 24.7185 60.3892 25.5988 60.0848 26.7623L58.9199 30.4213H62.6842ZM78.3648 31.0878C78.3648 32.8063 77.8982 34.1646 76.964 35.1617C76.1278 36.0494 75.0882 36.4927 73.8485 36.4927C72.5099 36.4927 71.5472 36.0157 70.9627 35.0596V40.3613H68.7172V29.481C68.7172 28.4017 68.6887 27.2951 68.6339 26.16H70.6088L70.7341 27.7615H70.7762C71.5251 26.5548 72.6615 25.9515 74.1866 25.9515C75.3789 25.9515 76.3742 26.4222 77.1705 27.3646C77.9657 28.3091 78.3648 29.5495 78.3648 31.0878ZM76.0772 31.17C76.0772 30.1865 75.856 29.3757 75.4116 28.7366C74.926 28.0722 74.274 27.7394 73.4567 27.7394C72.9027 27.7394 72.3993 27.9247 71.9495 28.2901C71.4988 28.6587 71.2039 29.1399 71.0659 29.7358C71.0043 29.9587 70.9693 30.1881 70.9616 30.4192V32.105C70.9616 32.8389 71.187 33.4591 71.6378 33.9666C72.0886 34.4721 72.6742 34.7258 73.3946 34.7258C74.2403 34.7258 74.8986 34.3984 75.3694 33.7487C75.8413 33.0969 76.0772 32.2377 76.0772 31.17V31.17ZM89.9894 31.0878C89.9894 32.8063 89.5229 34.1646 88.5886 35.1617C87.7513 36.0494 86.7128 36.4927 85.4721 36.4927C84.1334 36.4927 83.1708 36.0157 82.5862 35.0596V40.3613H80.3407V29.481C80.3407 28.4017 80.3123 27.2951 80.2575 26.16H82.2323L82.3577 27.7615H82.3998C83.1476 26.5548 84.284 25.9515 85.8102 25.9515C87.0014 25.9515 87.9967 26.4222 88.7951 27.3646C89.5892 28.3091 89.9894 29.5495 89.9894 31.0878V31.0878ZM87.7008 31.17C87.7008 30.1865 87.4785 29.3757 87.034 28.7366C86.5485 28.0722 85.8987 27.7394 85.0813 27.7394C84.5273 27.7394 84.0239 27.9247 83.5721 28.2901C83.1213 28.6587 82.8274 29.1399 82.6894 29.7358C82.621 30.0138 82.5841 30.2402 82.5841 30.4192V32.105C82.5841 32.8389 82.8106 33.4591 83.2592 33.9666C83.71 34.471 84.2956 34.7258 85.0182 34.7258C85.865 34.7258 86.5232 34.3984 86.993 33.7487C87.4648 33.0969 87.7008 32.2377 87.7008 31.17V31.17ZM102.986 32.3335C102.986 33.5265 102.569 34.4963 101.74 35.2449C100.828 36.062 99.555 36.4716 97.9224 36.4716C96.4142 36.4716 95.2051 36.181 94.293 35.5987L94.8122 33.7276C95.797 34.311 96.8787 34.6016 98.0562 34.6016C98.903 34.6016 99.5613 34.4099 100.031 34.0298C100.502 33.6486 100.74 33.139 100.74 32.503C100.74 31.9334 100.543 31.4564 100.156 31.0678C99.7677 30.6803 99.1252 30.3192 98.2226 29.9875C95.7686 29.0725 94.5405 27.7342 94.5405 25.9736C94.5405 24.8238 94.9744 23.8824 95.8402 23.1464C96.706 22.4114 97.854 22.044 99.2822 22.044C100.558 22.044 101.62 22.2661 102.464 22.7094L101.901 24.5395C101.106 24.1099 100.21 23.8951 99.2074 23.8951C98.4154 23.8951 97.794 24.0899 97.3495 24.4774C96.9756 24.8238 96.786 25.246 96.786 25.7472C96.786 26.3 97.0019 26.7591 97.4316 27.1192C97.8045 27.4509 98.4849 27.8121 99.4686 28.1996C100.676 28.686 101.562 29.2525 102.13 29.9033C102.702 30.554 102.986 31.3658 102.986 32.3335ZM110.43 27.8447H107.955V32.7505C107.955 33.9982 108.391 34.6205 109.265 34.6205C109.666 34.6205 109.999 34.5868 110.262 34.5163L110.324 36.221C109.882 36.3863 109.3 36.4695 108.578 36.4695C107.691 36.4695 106.998 36.1989 106.498 35.6577C106 35.1165 105.749 34.2099 105.749 32.9337V27.8405H104.275V26.1558H105.749V24.3057L107.955 23.6402V26.1558H110.43V27.8447V27.8447ZM121.575 31.1289C121.575 32.682 121.131 33.9572 120.244 34.9543C119.316 35.981 118.081 36.4927 116.543 36.4927C115.058 36.4927 113.877 36.001 112.996 35.0185C112.116 34.034 111.676 32.7936 111.676 31.2974C111.676 29.7316 112.131 28.4491 113.037 27.452C113.946 26.4538 115.17 25.9547 116.709 25.9547C118.192 25.9547 119.383 26.4474 120.285 27.4309C121.146 28.3849 121.575 29.6169 121.575 31.1289ZM119.247 31.1805C119.247 30.255 119.047 29.461 118.646 28.7966C118.175 27.9942 117.501 27.5931 116.628 27.5931C115.729 27.5931 115.039 27.9942 114.569 28.7966C114.167 29.461 113.966 30.2686 113.966 31.2226C113.966 32.1492 114.167 32.9453 114.569 33.6076C115.054 34.4099 115.732 34.8111 116.609 34.8111C117.467 34.8111 118.14 34.4015 118.627 33.5876C119.04 32.9074 119.247 32.1082 119.247 31.1805ZM128.877 28.1343C128.644 28.0921 128.407 28.0713 128.169 28.0722C127.379 28.0722 126.769 28.3691 126.339 28.9672C125.966 29.4937 125.779 30.1591 125.779 30.9625V36.2642H123.533V29.342C123.535 28.2813 123.513 27.2207 123.468 26.161H125.424L125.506 28.0943H125.568C125.806 27.4299 126.179 26.8939 126.691 26.4927C127.159 26.1422 127.728 25.9523 128.314 25.9515C128.521 25.9515 128.709 25.9662 128.875 25.9926L128.877 28.1343V28.1343ZM138.92 30.734C138.926 31.0753 138.898 31.4163 138.838 31.7523H132.101C132.126 32.7505 132.453 33.5149 133.079 34.0414C133.646 34.511 134.38 34.7469 135.282 34.7469C136.279 34.7469 137.189 34.5889 138.008 34.2699L138.359 35.8272C137.403 36.2442 136.274 36.4516 134.971 36.4516C133.404 36.4516 132.174 35.9904 131.279 35.0701C130.385 34.1488 129.938 32.9105 129.938 31.3595C129.938 29.8369 130.354 28.5681 131.187 27.5562C132.059 26.4759 133.238 25.9357 134.721 25.9357C136.177 25.9357 137.28 26.4759 138.029 27.5562C138.622 28.4123 138.92 29.4737 138.92 30.734V30.734ZM136.779 30.1518C136.794 29.4852 136.647 28.9114 136.343 28.426C135.954 27.8005 135.356 27.4888 134.554 27.4888C133.82 27.4888 133.222 27.7931 132.767 28.4038C132.393 28.8893 132.171 29.4726 132.102 30.1497L136.779 30.1518Z" fill="black"/>
<path d="M57.8772 18.8685C57.2526 18.8685 56.7123 18.838 56.2625 18.7864V12.0117C56.8915 11.9145 57.5272 11.8666 58.1636 11.8685C60.7388 11.8685 61.9248 13.1352 61.9248 15.2C61.9248 17.5818 60.5239 18.8685 57.8772 18.8685ZM58.2542 12.7371C57.9066 12.7371 57.6107 12.7582 57.3653 12.8087V17.9588C57.498 17.9798 57.7529 17.9893 58.111 17.9893C59.7983 17.9893 60.7588 17.029 60.7588 15.2306C60.7588 13.6269 59.8899 12.7371 58.2542 12.7371V12.7371ZM65.6206 18.9201C64.1692 18.9201 63.2287 17.8366 63.2287 16.3657C63.2287 14.8325 64.1892 13.7396 65.7027 13.7396C67.133 13.7396 68.0946 14.7715 68.0946 16.2846C68.0946 17.8366 67.1035 18.9201 65.6206 18.9201ZM65.6627 14.5461C64.8654 14.5461 64.3546 15.2916 64.3546 16.3341C64.3546 17.3565 64.8759 18.102 65.6522 18.102C66.4284 18.102 66.9498 17.3049 66.9498 16.313C66.9498 15.3022 66.4389 14.5461 65.6627 14.5461ZM76.371 13.8417L74.8175 18.8075H73.8053L73.1618 16.651C73.0018 16.1235 72.8685 15.5883 72.7626 15.0473H72.7415C72.6604 15.5886 72.5067 16.1308 72.3434 16.651L71.6588 18.8075H70.6361L69.1742 13.8417H70.3085L70.871 16.2024C71.0037 16.7647 71.1153 17.2954 71.208 17.7966H71.2291C71.3102 17.3786 71.4429 16.8563 71.6377 16.213L72.3434 13.8428H73.2429L73.918 16.1624C74.0813 16.7247 74.214 17.2765 74.3172 17.7977H74.3467C74.4183 17.287 74.531 16.7447 74.6837 16.1624L75.2872 13.8428L76.371 13.8417V13.8417ZM82.0901 18.8075H80.9863V15.956C80.9863 15.0779 80.6493 14.6377 79.9847 14.6377C79.3306 14.6377 78.8809 15.2 78.8809 15.8539V18.8075H77.7771V15.2611C77.7771 14.822 77.7665 14.3513 77.736 13.8406H78.7071L78.7587 14.6072H78.7892C79.0863 14.0765 79.6887 13.7396 80.3638 13.7396C81.4065 13.7396 82.0911 14.5367 82.0911 15.8339L82.0901 18.8075V18.8075ZM85.134 18.8075H84.0291V11.5631H85.134V18.8075ZM89.1584 18.9201C87.7081 18.9201 86.7665 17.8366 86.7665 16.3657C86.7665 14.8325 87.727 13.7396 89.2395 13.7396C90.6708 13.7396 91.6314 14.7715 91.6314 16.2846C91.6324 17.8366 90.6403 18.9201 89.1584 18.9201ZM89.1995 14.5461C88.4022 14.5461 87.8913 15.2916 87.8913 16.3341C87.8913 17.3565 88.4137 18.102 89.1879 18.102C89.9652 18.102 90.4855 17.3049 90.4855 16.313C90.4865 15.3022 89.9767 14.5461 89.1995 14.5461V14.5461ZM95.9834 18.8075L95.9033 18.2357H95.8738C95.5368 18.6959 95.0449 18.9201 94.4214 18.9201C93.5314 18.9201 92.8995 18.2968 92.8995 17.4586C92.8995 16.233 93.9622 15.5991 95.8022 15.5991V15.5075C95.8022 14.8536 95.4557 14.5261 94.7711 14.5261C94.2813 14.5261 93.8516 14.6493 93.4735 14.8947L93.2492 14.1692C93.7084 13.8828 94.2813 13.7396 94.9544 13.7396C96.252 13.7396 96.9071 14.424 96.9071 15.7939V17.6229C96.9071 18.1241 96.9292 18.5126 96.9787 18.8085L95.9834 18.8075V18.8075ZM95.8317 16.3341C94.6057 16.3341 93.9906 16.631 93.9906 17.3354C93.9906 17.8566 94.3077 18.1115 94.7479 18.1115C95.3093 18.1115 95.8317 17.6829 95.8317 17.1006V16.3341V16.3341ZM102.267 18.8075L102.215 18.0104H102.185C101.868 18.6127 101.335 18.9201 100.59 18.9201C99.3927 18.9201 98.5059 17.8672 98.5059 16.3857C98.5059 14.8325 99.4254 13.7385 100.681 13.7385C101.345 13.7385 101.816 13.9628 102.082 14.4135H102.104V11.5631H103.209V17.4692C103.209 17.9493 103.22 18.3989 103.25 18.8075H102.267ZM102.104 15.8855C102.104 15.1905 101.643 14.5977 100.941 14.5977C100.123 14.5977 99.6223 15.3232 99.6223 16.3446C99.6223 17.346 100.142 18.0314 100.919 18.0314C101.613 18.0314 102.104 17.4281 102.104 16.7131V15.8855ZM110.214 18.9201C108.763 18.9201 107.823 17.8366 107.823 16.3657C107.823 14.8325 108.783 13.7396 110.296 13.7396C111.727 13.7396 112.688 14.7715 112.688 16.2846C112.689 17.8366 111.698 18.9201 110.214 18.9201ZM110.255 14.5461C109.459 14.5461 108.948 15.2916 108.948 16.3341C108.948 17.3565 109.469 18.102 110.244 18.102C111.022 18.102 111.542 17.3049 111.542 16.313C111.544 15.3022 111.033 14.5461 110.255 14.5461ZM118.624 18.8075H117.519V15.956C117.519 15.0779 117.182 14.6377 116.517 14.6377C115.863 14.6377 115.415 15.2 115.415 15.8539V18.8075H114.31V15.2611C114.31 14.822 114.299 14.3513 114.269 13.8406H115.24L115.291 14.6072H115.322C115.618 14.0765 116.221 13.7385 116.895 13.7385C117.938 13.7385 118.624 14.5356 118.624 15.8329V18.8075ZM126.05 14.6693H124.836V17.0806C124.836 17.6945 125.049 18.0009 125.478 18.0009C125.673 18.0009 125.836 17.9798 125.968 17.9493L125.999 18.7875C125.785 18.8696 125.498 18.9107 125.142 18.9107C124.272 18.9107 123.752 18.4305 123.752 17.1733V14.6693H123.027V13.8417H123.752V12.9319L124.836 12.6045V13.8406H126.05V14.6693V14.6693ZM131.894 18.8075H130.791V15.9771C130.791 15.0884 130.455 14.6388 129.789 14.6388C129.217 14.6388 128.684 15.0273 128.684 15.8139V18.8075H127.582V11.5631H128.684V14.5461H128.706C129.054 14.0049 129.558 13.7385 130.2 13.7385C131.251 13.7385 131.894 14.5556 131.894 15.8539V18.8075V18.8075ZM137.88 16.5899H134.568C134.589 17.5302 135.211 18.0609 136.133 18.0609C136.623 18.0609 137.073 17.9788 137.472 17.8261L137.643 18.5927C137.173 18.7969 136.621 18.8991 135.977 18.8991C134.423 18.8991 133.504 17.9177 133.504 16.3962C133.504 14.8736 134.446 13.729 135.853 13.729C137.122 13.729 137.918 14.6693 137.918 16.0898C137.925 16.2574 137.913 16.4253 137.88 16.5899V16.5899ZM136.868 15.8034C136.868 15.0368 136.482 14.4956 135.776 14.4956C135.142 14.4956 134.64 15.0473 134.569 15.8034H136.868V15.8034Z" fill="black"/>
</svg>
