<svg width="60" height="61" viewBox="0 0 60 61" fill="none" xmlns="http://www.w3.org/2000/svg">
<path d="M46.3249 9.06084C48.039 10.4048 49.2203 12.5757 49.7033 14.849L49.8739 14.9172L55.242 17.4005C55.5419 17.5385 55.796 17.7593 55.9746 18.037C56.1532 18.3146 56.2487 18.6375 56.25 18.9676V51.431C56.2481 51.7006 56.1837 51.9662 56.0619 52.2068C55.9401 52.4474 55.7643 52.6565 55.5481 52.8178C55.3319 52.979 55.0814 53.088 54.816 53.1361C54.5507 53.1842 54.2778 53.1702 54.0187 53.0952L39.1376 48.8952L21.4451 53.7725C21.126 53.8607 20.7884 53.8571 20.4713 53.762L4.99425 49.1551C4.63652 49.05 4.32222 48.8323 4.09806 48.5344C3.8739 48.2365 3.75184 47.8742 3.75 47.5013V14.4552C3.75 13.3002 4.8735 12.4707 5.99437 12.7962L20.9621 17.1563L28.5694 14.828C28.6744 14.7965 28.7811 14.7746 28.8896 14.7623C29.1836 13.0403 30.0053 11.3866 31.3834 9.77484C33.0188 7.85859 35.8879 6.73509 38.6835 6.60122C41.5841 6.46209 43.7996 7.08159 46.3223 9.05822M7.24912 16.7731V46.2125L20.0329 50.0161V20.4927L7.24912 16.7731ZM28.7977 18.3848L23.532 19.994V49.6013L36.8276 45.9421V37.2927C36.8276 36.3372 37.6125 35.5628 38.5785 35.5628C39.5445 35.5628 40.3268 36.3372 40.3268 37.2953V45.635L52.7509 49.1393V20.0675L49.8109 18.7025C49.7619 18.9912 49.698 19.2738 49.6193 19.5503C49.0506 21.5639 48.0928 23.4465 46.8 25.0917L40.2979 33.2108C40.1267 33.4243 39.908 33.5949 39.6593 33.709C39.4106 33.8231 39.1387 33.8777 38.8652 33.8682C38.5917 33.8588 38.3242 33.7857 38.084 33.6547C37.8437 33.5237 37.6373 33.3385 37.4813 33.1137L31.4044 24.3121C30.3999 22.9138 29.699 21.6573 29.3018 20.5426C29.052 19.8449 28.8829 19.121 28.7977 18.3848ZM38.8515 10.061C36.9458 10.1528 34.9875 10.9193 34.0556 12.0087C32.9347 13.3212 32.3835 14.5497 32.2733 15.794C32.142 17.2928 32.2312 18.3507 32.604 19.3981C32.8796 20.1725 33.4282 21.1542 34.2761 22.3381L39.03 29.2208L44.0438 22.9602C45.0559 21.668 45.8058 20.1904 46.2514 18.6106C46.8814 16.4056 45.9311 13.1663 44.1514 11.7751C42.327 10.3445 40.9489 9.95859 38.8541 10.061M39.2164 11.8906C42.1144 11.8906 44.4664 14.2137 44.4664 17.0802C44.4574 18.4643 43.8994 19.7882 42.9151 20.7612C41.9307 21.7342 40.6004 22.2768 39.2164 22.2698C36.3184 22.2698 33.9664 19.9467 33.9664 17.0802C33.9664 14.2137 36.3184 11.8906 39.2164 11.8906ZM39.2164 15.3503C38.9878 15.349 38.7612 15.3926 38.5496 15.4788C38.3379 15.565 38.1452 15.692 37.9827 15.8527C37.8201 16.0133 37.6907 16.2044 37.602 16.415C37.5133 16.6256 37.4669 16.8517 37.4655 17.0802C37.4655 18.0357 38.2504 18.8101 39.2164 18.8101C39.4449 18.8111 39.6714 18.7671 39.883 18.6806C40.0945 18.5941 40.287 18.4668 40.4493 18.3059C40.6117 18.145 40.7407 17.9538 40.8291 17.743C40.9176 17.5322 40.9636 17.3061 40.9646 17.0776C40.9612 16.6169 40.7752 16.1764 40.4475 15.8527C40.1198 15.5289 39.677 15.3482 39.2164 15.3503Z" fill="white"/>
</svg>
