<svg width="18" height="18" viewBox="0 0 18 18" fill="none" xmlns="http://www.w3.org/2000/svg">
<path d="M16.0875 8.42041H15.045C14.9087 7.00258 14.2834 5.67635 13.2762 4.66918C12.2691 3.662 10.9428 3.03666 9.525 2.90041V1.85791C9.525 1.70873 9.46574 1.56565 9.36025 1.46016C9.25476 1.35467 9.11168 1.29541 8.9625 1.29541C8.81331 1.29541 8.67024 1.35467 8.56475 1.46016C8.45926 1.56565 8.4 1.70873 8.4 1.85791V2.90041C6.98838 3.04347 5.67016 3.67198 4.6703 4.67868C3.67045 5.68537 3.05094 7.00785 2.9175 8.42041H1.875C1.80113 8.42041 1.72799 8.43496 1.65974 8.46323C1.59149 8.4915 1.52949 8.53293 1.47725 8.58516C1.42502 8.63739 1.38359 8.6994 1.35532 8.76765C1.32705 8.8359 1.3125 8.90904 1.3125 8.98291C1.3125 9.05678 1.32705 9.12992 1.35532 9.19817C1.38359 9.26641 1.42502 9.32842 1.47725 9.38066C1.52949 9.43289 1.59149 9.47432 1.65974 9.50259C1.72799 9.53086 1.80113 9.54541 1.875 9.54541H2.9175C3.05375 10.9632 3.67909 12.2895 4.68627 13.2966C5.69344 14.3038 7.01967 14.9292 8.4375 15.0654V16.1079C8.4375 16.2571 8.49676 16.4002 8.60225 16.5057C8.70774 16.6111 8.85082 16.6704 9 16.6704C9.14918 16.6704 9.29226 16.6111 9.39775 16.5057C9.50324 16.4002 9.5625 16.2571 9.5625 16.1079V15.0654C10.9798 14.9278 12.3053 14.302 13.3122 13.2951C14.3191 12.2882 14.9449 10.9627 15.0825 9.54541H16.125C16.1989 9.54541 16.272 9.53086 16.3403 9.50259C16.4085 9.47432 16.4705 9.43289 16.5227 9.38066C16.575 9.32842 16.6164 9.26641 16.6447 9.19817C16.6729 9.12992 16.6875 9.05678 16.6875 8.98291C16.6875 8.90904 16.6729 8.8359 16.6447 8.76765C16.6164 8.6994 16.575 8.63739 16.5227 8.58516C16.4705 8.53293 16.4085 8.4915 16.3403 8.46323C16.272 8.43496 16.1989 8.42041 16.125 8.42041H16.0875ZM8.9625 13.9629C7.97755 13.9629 7.01472 13.6708 6.19576 13.1236C5.3768 12.5764 4.7385 11.7986 4.36158 10.8887C3.98466 9.9787 3.88603 8.97739 4.07819 8.01136C4.27034 7.04533 4.74464 6.15798 5.44111 5.46152C6.13757 4.76505 7.02492 4.29075 7.99095 4.0986C8.95697 3.90644 9.95829 4.00507 10.8683 4.38199C11.7782 4.75891 12.556 5.39721 13.1032 6.21617C13.6504 7.03513 13.9425 7.99796 13.9425 8.98291C13.9425 10.3044 13.4181 11.5718 12.4843 12.507C11.5506 13.4421 10.284 13.9684 8.9625 13.9704V13.9629Z" fill="#767676"/>
<path d="M12.3598 8.99046C12.3598 9.66422 12.1599 10.3228 11.7854 10.883C11.411 11.4431 10.8787 11.8795 10.2561 12.137C9.63349 12.3945 8.94847 12.4615 8.28776 12.3295C7.62705 12.1975 7.02035 11.8724 6.54445 11.3955C6.06856 10.9185 5.74486 10.3111 5.61432 9.65013C5.48379 8.98913 5.55229 8.30427 5.81115 7.68221C6.07002 7.06016 6.50762 6.5289 7.06855 6.15565C7.62949 5.78241 8.28854 5.58397 8.96231 5.58546C9.4091 5.58546 9.85151 5.67358 10.2642 5.84479C10.6769 6.016 11.0518 6.26693 11.3674 6.58321C11.6829 6.89949 11.933 7.27492 12.1033 7.68799C12.2736 8.10106 12.3608 8.54366 12.3598 8.99046Z" fill="#767676"/>
</svg>
