<svg width="60" height="61" viewBox="0 0 60 61" fill="none" xmlns="http://www.w3.org/2000/svg">
<path d="M0 12.2075V15.9575H35.625V44.0825H24.0825C23.2463 40.8594 20.3475 38.4575 16.875 38.4575C13.4025 38.4575 10.5037 40.8594 9.6675 44.0825H7.5V34.7075H3.75V47.8325H9.6675C10.5037 51.0556 13.4025 53.4575 16.875 53.4575C20.3475 53.4575 23.2463 51.0556 24.0825 47.8325H39.6675C40.5037 51.0556 43.4025 53.4575 46.875 53.4575C50.3475 53.4575 53.2463 51.0556 54.0825 47.8325H60V32.54L59.8819 32.2456L56.1319 20.9956L55.725 19.7075H39.375V12.2075H0ZM1.875 19.7075V23.4575H18.75V19.7075H1.875ZM39.375 23.4575H53.0269L56.25 33.0669V44.0825H54.0825C53.2463 40.8594 50.3475 38.4575 46.875 38.4575C43.4025 38.4575 40.5037 40.8594 39.6675 44.0825H39.375V23.4575ZM3.75 27.2075V30.9575H15V27.2075H3.75ZM16.875 42.2075C18.9694 42.2075 20.625 43.8631 20.625 45.9575C20.625 48.0519 18.9694 49.7075 16.875 49.7075C14.7806 49.7075 13.125 48.0519 13.125 45.9575C13.125 43.8631 14.7806 42.2075 16.875 42.2075ZM46.875 42.2075C48.9694 42.2075 50.625 43.8631 50.625 45.9575C50.625 48.0519 48.9694 49.7075 46.875 49.7075C44.7806 49.7075 43.125 48.0519 43.125 45.9575C43.125 43.8631 44.7806 42.2075 46.875 42.2075Z" fill="white"/>
</svg>
