<svg width="14" height="16" viewBox="0 0 14 16" fill="none" xmlns="http://www.w3.org/2000/svg">
<path fill-rule="evenodd" clip-rule="evenodd" d="M7 0C5.99218 0 5.02564 0.372424 4.31301 1.03534C3.60038 1.69826 3.20002 2.59737 3.20002 3.53488C3.20002 4.47239 3.60038 5.3715 4.31301 6.03442C5.02564 6.69734 5.99218 7.06977 7 7.06977C8.00782 7.06977 8.97435 6.69734 9.68699 6.03442C10.3996 5.3715 10.8 4.47239 10.8 3.53488C10.8 2.59737 10.3996 1.69826 9.68699 1.03534C8.97435 0.372424 8.00782 0 7 0ZM4.40002 3.53488C4.40002 2.89343 4.67394 2.27825 5.16153 1.82467C5.64913 1.3711 6.31044 1.11628 7 1.11628C7.68956 1.11628 8.35087 1.3711 8.83846 1.82467C9.32606 2.27825 9.59998 2.89343 9.59998 3.53488C9.59998 4.17634 9.32606 4.79152 8.83846 5.2451C8.35087 5.69867 7.68956 5.95349 7 5.95349C6.31044 5.95349 5.64913 5.69867 5.16153 5.2451C4.67394 4.79152 4.40002 4.17634 4.40002 3.53488ZM7 8.18605C5.14961 8.18605 3.44402 8.57749 2.18083 9.23833C0.936038 9.89023 4.47212e-05 10.877 4.47212e-05 12.093V12.1689C-0.000755274 13.0337 -0.00155534 14.1187 1.02164 14.8941C1.52483 15.2752 2.22963 15.5468 3.18162 15.7254C4.13522 15.9055 5.37921 16 7 16C8.62079 16 9.86398 15.9055 10.8192 15.7254C11.7712 15.5468 12.4752 15.2752 12.9792 14.8941C14.0024 14.1187 14.0008 13.0337 14 12.1689V12.093C14 10.877 13.064 9.89023 11.82 9.23833C10.556 8.57749 8.85119 8.18605 7 8.18605ZM1.20004 12.093C1.20004 11.4597 1.69763 10.7721 2.76883 10.2117C3.82162 9.66102 5.31601 9.30233 7.0008 9.30233C8.68399 9.30233 10.1784 9.66102 11.2312 10.2117C12.3032 10.7721 12.8 11.4597 12.8 12.093C12.8 13.0664 12.768 13.6141 12.2208 14.0279C11.9248 14.2527 11.4288 14.4722 10.5808 14.6314C9.73518 14.7907 8.57919 14.8837 7 14.8837C5.42081 14.8837 4.26402 14.7907 3.41922 14.6314C2.57123 14.4722 2.07523 14.2527 1.77923 14.0287C1.23204 13.6141 1.20004 13.0664 1.20004 12.093Z" fill="url(#paint0_linear_790_1269)"/>
<defs>
<linearGradient id="paint0_linear_790_1269" x1="14" y1="16" x2="-1.85841" y2="2.12389" gradientUnits="userSpaceOnUse">
<stop stop-color="#22739D"/>
<stop offset="1" stop-color="#5B8FCB"/>
</linearGradient>
</defs>
</svg>
